<?xml version="1.0" standalone="no"?>
<mlt LC_NUMERIC="C" version="7.4.0" title="Shotcut version 22.01.30" producer="main_bin">
  <profile description="PAL 4:3 DV or DVD" width="1920" height="1080" progressive="1" sample_aspect_num="1" sample_aspect_den="1" display_aspect_num="16" display_aspect_den="9" frame_rate_num="25" frame_rate_den="1" colorspace="709"/>
  <playlist id="main_bin">
    <property name="xml_retain">1</property>
  </playlist>
  <producer id="black" in="00:00:00.000" out="00:00:38.160">
    <property name="length">00:00:38.200</property>
    <property name="eof">pause</property>
    <property name="resource">0</property>
    <property name="aspect_ratio">1</property>
    <property name="mlt_service">color</property>
    <property name="mlt_image_format">rgba</property>
    <property name="set.test_audio">0</property>
  </producer>
  <playlist id="background">
    <entry producer="black" in="00:00:00.000" out="00:00:38.160"/>
  </playlist>
  <producer id="producer1" in="00:00:00.000" out="03:59:59.960">
    <property name="length">04:00:00.000</property>
    <property name="eof">pause</property>
    <property name="resource">#FF000000</property>
    <property name="aspect_ratio">1</property>
    <property name="mlt_service">color</property>
    <property name="mlt_image_format">rgba</property>
    <property name="shotcut:caption">#FF000000</property>
    <property name="shotcut:detail">#FF000000</property>
    <property name="ignore_points">0</property>
    <property name="xml">was here</property>
    <property name="seekable">1</property>
  </producer>
  <producer id="producer2" in="00:00:00.000" out="03:59:59.960">
    <property name="length">04:00:00.000</property>
    <property name="eof">pause</property>
    <property name="resource">#FF000000</property>
    <property name="aspect_ratio">1</property>
    <property name="mlt_service">color</property>
    <property name="mlt_image_format">rgba</property>
    <property name="shotcut:caption">#FF000000</property>
    <property name="shotcut:detail">#FF000000</property>
    <property name="ignore_points">0</property>
    <property name="xml">was here</property>
    <property name="seekable">1</property>
    <filter id="filter1" in="00:00:01.320" out="00:00:06.120">
      <property name="argument">Muladhara</property>
      <property name="geometry">14 344 670 139 1</property>
      <property name="family">Sans</property>
      <property name="size">80</property>
      <property name="weight">750</property>
      <property name="style">normal</property>
      <property name="fgcolour">#e01b24</property>
      <property name="bgcolour">#00000000</property>
      <property name="olcolour">#aa000000</property>
      <property name="pad">0</property>
      <property name="halign">center</property>
      <property name="valign">top</property>
      <property name="outline">3</property>
      <property name="mlt_service">dynamictext</property>
      <property name="shotcut:filter">dynamicText</property>
      <property name="shotcut:usePointSize">1</property>
      <property name="shotcut:pointSize">60</property>
    </filter>
    <filter id="filter0" in="00:00:02.560" out="00:00:06.120">
      <property name="start">1</property>
      <property name="level">00:00:03.040=1;00:00:03.560=0</property>
      <property name="mlt_service">brightness</property>
      <property name="shotcut:filter">fadeOutBrightness</property>
      <property name="alpha">1</property>
      <property name="shotcut:animOut">14</property>
    </filter>
    <filter id="filter2" in="00:00:02.560" out="00:00:06.120">
      <property name="window">75</property>
      <property name="max_gain">20dB</property>
      <property name="level">00:00:03.040=0;00:00:03.560=-60</property>
      <property name="mlt_service">volume</property>
      <property name="shotcut:filter">fadeOutVolume</property>
      <property name="shotcut:animOut">14</property>
    </filter>
  </producer>
  <tractor id="tractor0" in="00:00:00.000" out="00:00:01.200">
    <property name="shotcut:transition">lumaMix</property>
    <track producer="producer1" in="00:00:02.760" out="00:00:03.960"/>
    <track producer="producer2" in="00:00:01.320" out="00:00:02.520"/>
    <transition id="transition0" out="00:00:01.200">
      <property name="a_track">0</property>
      <property name="b_track">1</property>
      <property name="factory">loader</property>
      <property name="resource">%luma01.pgm</property>
      <property name="mlt_service">luma</property>
      <property name="alpha_over">1</property>
      <property name="progressive">1</property>
      <property name="invert">0</property>
      <property name="softness">0.2</property>
    </transition>
    <transition id="transition1" out="00:00:01.200">
      <property name="a_track">0</property>
      <property name="b_track">1</property>
      <property name="mlt_service">mix</property>
      <property name="start">-1</property>
      <property name="accepts_blanks">1</property>
    </transition>
  </tractor>
  <producer id="producer0" in="00:00:00.000" out="03:59:59.960">
    <property name="length">04:00:00.000</property>
    <property name="eof">pause</property>
    <property name="resource">#FF000000</property>
    <property name="aspect_ratio">1</property>
    <property name="mlt_service">color</property>
    <property name="mlt_image_format">rgba</property>
    <property name="shotcut:caption">#FF000000</property>
    <property name="shotcut:detail">#FF000000</property>
    <property name="ignore_points">0</property>
    <property name="xml">was here</property>
    <property name="seekable">1</property>
    <filter id="filter3" out="00:00:04.320">
      <property name="argument">Partes:
-Base de la columna
-Entre el perineo
-Genitales</property>
      <property name="geometry">114 291 842 356 1</property>
      <property name="family">Sans</property>
      <property name="size">80</property>
      <property name="weight">750</property>
      <property name="style">normal</property>
      <property name="fgcolour">#ffffffff</property>
      <property name="bgcolour">#00000000</property>
      <property name="olcolour">#aa000000</property>
      <property name="pad">0</property>
      <property name="halign">center</property>
      <property name="valign">top</property>
      <property name="outline">3</property>
      <property name="mlt_service">dynamictext</property>
      <property name="shotcut:filter">dynamicText</property>
      <property name="shotcut:usePointSize">1</property>
      <property name="shotcut:pointSize">60</property>
    </filter>
    <filter id="filter4" out="00:00:04.320">
      <property name="start">1</property>
      <property name="level">00:00:00.000=0;00:00:00.640=1</property>
      <property name="mlt_service">brightness</property>
      <property name="shotcut:filter">fadeInBrightness</property>
      <property name="alpha">1</property>
      <property name="shotcut:animIn">17</property>
    </filter>
    <filter id="filter5" out="00:00:04.320">
      <property name="start">1</property>
      <property name="level">00:00:03.640=1;00:00:04.320=0</property>
      <property name="mlt_service">brightness</property>
      <property name="shotcut:filter">fadeOutBrightness</property>
      <property name="alpha">1</property>
      <property name="shotcut:animOut">18</property>
    </filter>
    <filter id="filter6" out="00:00:04.320">
      <property name="window">75</property>
      <property name="max_gain">20dB</property>
      <property name="level">00:00:00.000=-60;00:00:00.640=0</property>
      <property name="mlt_service">volume</property>
      <property name="shotcut:filter">fadeInVolume</property>
      <property name="shotcut:animIn">17</property>
    </filter>
    <filter id="filter7" out="00:00:04.320">
      <property name="window">75</property>
      <property name="max_gain">20dB</property>
      <property name="level">00:00:03.640=0;00:00:04.320=-60</property>
      <property name="mlt_service">volume</property>
      <property name="shotcut:filter">fadeOutVolume</property>
      <property name="shotcut:animOut">18</property>
    </filter>
  </producer>
  <playlist id="playlist2">
    <property name="shotcut:video">1</property>
    <property name="shotcut:name">3</property>
    <property name="shotcut:lock">0</property>
    <blank length="00:00:06.360"/>
    <entry producer="tractor0" in="00:00:00.000" out="00:00:01.200"/>
    <entry producer="producer2" in="00:00:02.560" out="00:00:06.120"/>
    <entry producer="producer0" in="00:00:00.000" out="00:00:04.320"/>
  </playlist>
  <producer id="producer3" in="00:00:00.000" out="03:59:59.960">
    <property name="length">04:00:00.000</property>
    <property name="eof">pause</property>
    <property name="resource">/home/alumnat/Im√°genes/Capturas de pantalla/Captura desde 2023-05-05 13-26-05.png</property>
    <property name="ttl">1</property>
    <property name="aspect_ratio">1</property>
    <property name="progressive">1</property>
    <property name="seekable">1</property>
    <property name="mlt_service">qimage</property>
    <property name="creation_time">2023-05-05T11:26:05</property>
    <property name="shotcut:caption">Captura desde 2023-05-05 13-26-05.png</property>
    <property name="shotcut:hash">0e42ff46e49805d874d541b8af977f84</property>
    <property name="ignore_points">0</property>
    <property name="xml">was here</property>
    <filter id="filter8" in="00:00:00.840" out="00:00:11.800">
      <property name="background">color:#00000000</property>
      <property name="mlt_service">affine</property>
      <property name="shotcut:filter">affineSizePosition</property>
      <property name="transition.fill">1</property>
      <property name="transition.distort">0</property>
      <property name="transition.rect">1183.16 63.3962 639.467 627.17 1</property>
      <property name="transition.valign">middle</property>
      <property name="transition.halign">center</property>
      <property name="shotcut:animIn">00:00:00.000</property>
      <property name="shotcut:animOut">00:00:00.000</property>
      <property name="transition.threads">0</property>
      <property name="transition.fix_rotate_x">0</property>
    </filter>
    <filter id="filter9" in="00:00:00.840" out="00:00:10.520">
      <property name="start">1</property>
      <property name="level">1</property>
      <property name="mlt_service">brightness</property>
      <property name="shotcut:filter">fadeInBrightness</property>
      <property name="alpha">00:00:00.000=0;00:00:00.760=1</property>
      <property name="shotcut:animIn">20</property>
    </filter>
    <filter id="filter10" in="00:00:00.840" out="00:00:10.520">
      <property name="window">75</property>
      <property name="max_gain">20dB</property>
      <property name="level">00:00:00.000=-60;00:00:00.760=0</property>
      <property name="mlt_service">volume</property>
      <property name="shotcut:filter">fadeInVolume</property>
      <property name="shotcut:animIn">20</property>
    </filter>
  </producer>
  <producer id="producer4" in="00:00:00.000" out="03:59:59.960">
    <property name="length">04:00:00.000</property>
    <property name="eof">pause</property>
    <property name="resource">#00000000</property>
    <property name="aspect_ratio">1</property>
    <property name="mlt_service">color</property>
    <property name="mlt_image_format">rgba</property>
    <property name="shotcut:caption">transparent</property>
    <property name="shotcut:detail">transparent</property>
    <property name="ignore_points">0</property>
    <property name="xml">was here</property>
    <property name="seekable">1</property>
    <filter id="filter11" out="00:00:06.680">
      <property name="argument">Hemorroides, obesidad, 
estre√±imiento, ci√°tica, fibromialgia, 
problemas en las extremidades inferiores, 
pies, piel, dientes, circulaci√≥n y 
aparato digestivo.</property>
      <property name="geometry">0 450 1920 630 1</property>
      <property name="family">Sans</property>
      <property name="size">80</property>
      <property name="weight">750</property>
      <property name="style">normal</property>
      <property name="fgcolour">#ffffffff</property>
      <property name="bgcolour">#00000000</property>
      <property name="olcolour">#aa000000</property>
      <property name="pad">0</property>
      <property name="halign">center</property>
      <property name="valign">top</property>
      <property name="outline">3</property>
      <property name="mlt_service">dynamictext</property>
      <property name="shotcut:filter">dynamicText</property>
      <property name="shotcut:usePointSize">1</property>
      <property name="shotcut:pointSize">60</property>
    </filter>
  </producer>
  <tractor id="tractor1" in="00:00:00.000" out="00:00:00.800">
    <property name="shotcut:transition">lumaMix</property>
    <track producer="producer3" in="00:00:10.560" out="00:00:11.360"/>
    <track producer="producer4" in="00:00:00.000" out="00:00:00.800"/>
    <transition id="transition2" out="00:00:00.800">
      <property name="a_track">0</property>
      <property name="b_track">1</property>
      <property name="factory">loader</property>
      <property name="mlt_service">luma</property>
      <property name="alpha_over">1</property>
    </transition>
    <transition id="transition3" out="00:00:00.800">
      <property name="a_track">0</property>
      <property name="b_track">1</property>
      <property name="start">-1</property>
      <property name="accepts_blanks">1</property>
      <property name="mlt_service">mix</property>
    </transition>
  </tractor>
  <producer id="producer5" in="00:00:00.000" out="03:59:59.960">
    <property name="length">04:00:00.000</property>
    <property name="eof">pause</property>
    <property name="resource">#00000000</property>
    <property name="aspect_ratio">1</property>
    <property name="mlt_service">color</property>
    <property name="mlt_image_format">rgba</property>
    <property name="shotcut:caption">transparent</property>
    <property name="shotcut:detail">transparent</property>
    <property name="ignore_points">0</property>
    <property name="xml">was here</property>
    <property name="seekable">1</property>
    <filter id="filter12" out="00:00:06.520">
      <property name="argument">Estabilidad y fuerza f√≠sica, seguridad, 
prosperidad, sentido com√∫n, 
motivaci√≥n y capacidad de 
materializar y manifestar.</property>
      <property name="geometry">0 425 1920 655 1</property>
      <property name="family">Sans</property>
      <property name="size">80</property>
      <property name="weight">750</property>
      <property name="style">normal</property>
      <property name="fgcolour">#ffffffff</property>
      <property name="bgcolour">#00000000</property>
      <property name="olcolour">#aa000000</property>
      <property name="pad">0</property>
      <property name="halign">center</property>
      <property name="valign">top</property>
      <property name="outline">3</property>
      <property name="mlt_service">dynamictext</property>
      <property name="shotcut:filter">dynamicText</property>
      <property name="shotcut:usePointSize">1</property>
      <property name="shotcut:pointSize">60</property>
    </filter>
  </producer>
  <tractor id="tractor2" in="00:00:00.000" out="00:00:01.120">
    <property name="shotcut:transition">lumaMix</property>
    <track producer="producer4" in="00:00:05.560" out="00:00:06.680"/>
    <track producer="producer5" in="00:00:00.000" out="00:00:01.120"/>
    <transition id="transition4" out="00:00:01.120">
      <property name="a_track">0</property>
      <property name="b_track">1</property>
      <property name="factory">loader</property>
      <property name="mlt_service">luma</property>
      <property name="alpha_over">1</property>
    </transition>
    <transition id="transition5" out="00:00:01.120">
      <property name="a_track">0</property>
      <property name="b_track">1</property>
      <property name="start">-1</property>
      <property name="accepts_blanks">1</property>
      <property name="mlt_service">mix</property>
    </transition>
  </tractor>
  <producer id="producer6" in="00:00:00.000" out="03:59:59.960">
    <property name="length">04:00:00.000</property>
    <property name="eof">pause</property>
    <property name="resource">#00000000</property>
    <property name="aspect_ratio">1</property>
    <property name="mlt_service">color</property>
    <property name="mlt_image_format">rgba</property>
    <property name="shotcut:caption">transparent</property>
    <property name="shotcut:detail">transparent</property>
    <property name="ignore_points">0</property>
    <property name="xml">was here</property>
    <property name="seekable">1</property>
    <filter id="filter13" out="00:00:07.040">
      <property name="argument">Jaspe rojo, turmalina negra, 
granate, √≥nice, obsidiana, hematita.</property>
      <property name="geometry">0 411 1920 270 1</property>
      <property name="family">Sans</property>
      <property name="size">80</property>
      <property name="weight">750</property>
      <property name="style">normal</property>
      <property name="fgcolour">#ffffffff</property>
      <property name="bgcolour">#00000000</property>
      <property name="olcolour">#aa000000</property>
      <property name="pad">0</property>
      <property name="halign">center</property>
      <property name="valign">top</property>
      <property name="outline">3</property>
      <property name="mlt_service">dynamictext</property>
      <property name="shotcut:filter">dynamicText</property>
      <property name="shotcut:usePointSize">1</property>
      <property name="shotcut:pointSize">60</property>
    </filter>
  </producer>
  <tractor id="tractor3" in="00:00:00.000" out="00:00:01.080">
    <property name="shotcut:transition">lumaMix</property>
    <track producer="producer5" in="00:00:05.440" out="00:00:06.520"/>
    <track producer="producer6" in="00:00:00.000" out="00:00:01.080"/>
    <transition id="transition6" out="00:00:01.080">
      <property name="a_track">0</property>
      <property name="b_track">1</property>
      <property name="factory">loader</property>
      <property name="mlt_service">luma</property>
      <property name="alpha_over">1</property>
    </transition>
    <transition id="transition7" out="00:00:01.080">
      <property name="a_track">0</property>
      <property name="b_track">1</property>
      <property name="start">-1</property>
      <property name="accepts_blanks">1</property>
      <property name="mlt_service">mix</property>
    </transition>
  </tractor>
  <playlist id="playlist3">
    <property name="shotcut:video">1</property>
    <property name="shotcut:name">2</property>
    <property name="shotcut:lock">0</property>
    <blank length="00:00:05.000"/>
    <entry producer="producer3" in="00:00:00.840" out="00:00:10.520"/>
    <entry producer="tractor1" in="00:00:00.000" out="00:00:00.800"/>
    <entry producer="producer4" in="00:00:00.840" out="00:00:05.520"/>
    <entry producer="tractor2" in="00:00:00.000" out="00:00:01.120"/>
    <entry producer="producer5" in="00:00:01.160" out="00:00:05.400"/>
    <entry producer="tractor3" in="00:00:00.000" out="00:00:01.080"/>
    <entry producer="producer6" in="00:00:01.120" out="00:00:07.040"/>
  </playlist>
  <producer id="producer7" in="00:00:00.000" out="03:59:59.960">
    <property name="length">04:00:00.000</property>
    <property name="eof">pause</property>
    <property name="resource">#FF000000</property>
    <property name="aspect_ratio">1</property>
    <property name="mlt_service">color</property>
    <property name="mlt_image_format">rgba</property>
    <property name="shotcut:caption">#FF000000</property>
    <property name="shotcut:detail">#FF000000</property>
    <property name="ignore_points">0</property>
    <property name="xml">was here</property>
    <property name="seekable">1</property>
  </producer>
  <producer id="producer8" in="00:00:00.000" out="03:59:59.960">
    <property name="length">04:00:00.000</property>
    <property name="eof">pause</property>
    <property name="resource">#00000000</property>
    <property name="aspect_ratio">1</property>
    <property name="mlt_service">color</property>
    <property name="mlt_image_format">rgba</property>
    <property name="shotcut:caption">transparent</property>
    <property name="shotcut:detail">transparent</property>
    <property name="ignore_points">0</property>
    <property name="xml">was here</property>
    <property name="seekable">1</property>
    <filter id="filter14" out="00:00:13.080">
      <property name="argument">Chakra Ra√≠z</property>
      <property name="geometry">-5 6 692 117 1</property>
      <property name="family">Sans</property>
      <property name="size">80</property>
      <property name="weight">750</property>
      <property name="style">normal</property>
      <property name="fgcolour">#ffffffff</property>
      <property name="bgcolour">#00000000</property>
      <property name="olcolour">#aa000000</property>
      <property name="pad">0</property>
      <property name="halign">center</property>
      <property name="valign">top</property>
      <property name="outline">3</property>
      <property name="mlt_service">dynamictext</property>
      <property name="shotcut:filter">dynamicText</property>
      <property name="shotcut:usePointSize">1</property>
      <property name="shotcut:pointSize">60</property>
    </filter>
  </producer>
  <tractor id="tractor4" in="00:00:00.000" out="00:00:01.240">
    <property name="shotcut:transition">lumaMix</property>
    <track producer="producer7" in="00:00:02.440" out="00:00:03.680"/>
    <track producer="producer8" in="00:00:00.000" out="00:00:01.240"/>
    <transition id="transition8" out="00:00:01.240">
      <property name="a_track">0</property>
      <property name="b_track">1</property>
      <property name="factory">loader</property>
      <property name="mlt_service">luma</property>
      <property name="alpha_over">1</property>
    </transition>
    <transition id="transition9" out="00:00:01.240">
      <property name="a_track">0</property>
      <property name="b_track">1</property>
      <property name="mlt_service">mix</property>
      <property name="start">-1</property>
      <property name="accepts_blanks">1</property>
    </transition>
  </tractor>
  <producer id="producer9" in="00:00:00.000" out="03:59:59.960">
    <property name="length">04:00:00.000</property>
    <property name="eof">pause</property>
    <property name="resource">#00000000</property>
    <property name="aspect_ratio">1</property>
    <property name="mlt_service">color</property>
    <property name="mlt_image_format">rgba</property>
    <property name="shotcut:caption">transparent</property>
    <property name="shotcut:detail">transparent</property>
    <property name="ignore_points">0</property>
    <property name="xml">was here</property>
    <property name="seekable">1</property>
    <filter id="filter15" out="00:00:07.920">
      <property name="argument">Enfermedades</property>
      <property name="geometry">0 11 1920 270 1</property>
      <property name="family">Sans</property>
      <property name="size">80</property>
      <property name="weight">750</property>
      <property name="style">normal</property>
      <property name="fgcolour">#ffffffff</property>
      <property name="bgcolour">#00000000</property>
      <property name="olcolour">#aa000000</property>
      <property name="pad">0</property>
      <property name="halign">center</property>
      <property name="valign">top</property>
      <property name="outline">3</property>
      <property name="mlt_service">dynamictext</property>
      <property name="shotcut:filter">dynamicText</property>
      <property name="shotcut:usePointSize">1</property>
      <property name="shotcut:pointSize">60</property>
    </filter>
  </producer>
  <tractor id="tractor5" in="00:00:00.000" out="00:00:00.800">
    <property name="shotcut:transition">lumaMix</property>
    <track producer="producer8" in="00:00:12.280" out="00:00:13.080"/>
    <track producer="producer9" in="00:00:00.000" out="00:00:00.800"/>
    <transition id="transition10" out="00:00:00.800">
      <property name="a_track">0</property>
      <property name="b_track">1</property>
      <property name="factory">loader</property>
      <property name="mlt_service">luma</property>
      <property name="alpha_over">1</property>
    </transition>
    <transition id="transition11" out="00:00:00.800">
      <property name="a_track">0</property>
      <property name="b_track">1</property>
      <property name="start">-1</property>
      <property name="accepts_blanks">1</property>
      <property name="mlt_service">mix</property>
    </transition>
  </tractor>
  <producer id="producer10" in="00:00:00.000" out="03:59:59.960">
    <property name="length">04:00:00.000</property>
    <property name="eof">pause</property>
    <property name="resource">#00000000</property>
    <property name="aspect_ratio">1</property>
    <property name="mlt_service">color</property>
    <property name="mlt_image_format">rgba</property>
    <property name="shotcut:caption">transparent</property>
    <property name="shotcut:detail">transparent</property>
    <property name="ignore_points">0</property>
    <property name="xml">was here</property>
    <property name="seekable">1</property>
    <filter id="filter16" out="00:00:06.520">
      <property name="argument">Equilibrio</property>
      <property name="geometry">5 6 1920 270 1</property>
      <property name="family">Sans</property>
      <property name="size">80</property>
      <property name="weight">750</property>
      <property name="style">normal</property>
      <property name="fgcolour">#ffffffff</property>
      <property name="bgcolour">#00000000</property>
      <property name="olcolour">#aa000000</property>
      <property name="pad">0</property>
      <property name="halign">center</property>
      <property name="valign">top</property>
      <property name="outline">3</property>
      <property name="mlt_service">dynamictext</property>
      <property name="shotcut:filter">dynamicText</property>
      <property name="shotcut:usePointSize">1</property>
      <property name="shotcut:pointSize">60</property>
    </filter>
  </producer>
  <tractor id="tractor6" in="00:00:00.000" out="00:00:01.120">
    <property name="shotcut:transition">lumaMix</property>
    <track producer="producer9" in="00:00:05.560" out="00:00:06.680"/>
    <track producer="producer10" in="00:00:00.000" out="00:00:01.120"/>
    <transition id="transition12" out="00:00:01.120">
      <property name="a_track">0</property>
      <property name="b_track">1</property>
      <property name="factory">loader</property>
      <property name="mlt_service">luma</property>
      <property name="alpha_over">1</property>
    </transition>
    <transition id="transition13" out="00:00:01.120">
      <property name="a_track">0</property>
      <property name="b_track">1</property>
      <property name="start">-1</property>
      <property name="accepts_blanks">1</property>
      <property name="mlt_service">mix</property>
    </transition>
  </tractor>
  <producer id="producer11" in="00:00:00.000" out="03:59:59.960">
    <property name="length">04:00:00.000</property>
    <property name="eof">pause</property>
    <property name="resource">#00000000</property>
    <property name="aspect_ratio">1</property>
    <property name="mlt_service">color</property>
    <property name="mlt_image_format">rgba</property>
    <property name="shotcut:caption">transparent</property>
    <property name="shotcut:detail">transparent</property>
    <property name="ignore_points">0</property>
    <property name="xml">was here</property>
    <property name="seekable">1</property>
    <filter id="filter17" out="00:00:08.520">
      <property name="argument">Piedras y Cristales</property>
      <property name="geometry">0 6 1920 270 1</property>
      <property name="family">Sans</property>
      <property name="size">80</property>
      <property name="weight">750</property>
      <property name="style">normal</property>
      <property name="fgcolour">#ffffffff</property>
      <property name="bgcolour">#00000000</property>
      <property name="olcolour">#aa000000</property>
      <property name="pad">0</property>
      <property name="halign">center</property>
      <property name="valign">top</property>
      <property name="outline">3</property>
      <property name="mlt_service">dynamictext</property>
      <property name="shotcut:filter">dynamicText</property>
      <property name="shotcut:usePointSize">1</property>
      <property name="shotcut:pointSize">60</property>
    </filter>
  </producer>
  <tractor id="tractor7" in="00:00:00.000" out="00:00:01.080">
    <property name="shotcut:transition">lumaMix</property>
    <track producer="producer10" in="00:00:05.440" out="00:00:06.520"/>
    <track producer="producer11" in="00:00:00.000" out="00:00:01.080"/>
    <transition id="transition14" out="00:00:01.080">
      <property name="a_track">0</property>
      <property name="b_track">1</property>
      <property name="factory">loader</property>
      <property name="mlt_service">luma</property>
      <property name="alpha_over">1</property>
    </transition>
    <transition id="transition15" out="00:00:01.080">
      <property name="a_track">0</property>
      <property name="b_track">1</property>
      <property name="start">-1</property>
      <property name="accepts_blanks">1</property>
      <property name="mlt_service">mix</property>
    </transition>
  </tractor>
  <producer id="producer12" in="00:00:00.000" out="03:59:59.960">
    <property name="length">04:00:00.000</property>
    <property name="eof">pause</property>
    <property name="resource">#00000000</property>
    <property name="aspect_ratio">1</property>
    <property name="mlt_service">color</property>
    <property name="mlt_image_format">rgba</property>
    <property name="shotcut:caption">transparent</property>
    <property name="shotcut:detail">transparent</property>
    <property name="ignore_points">0</property>
    <property name="xml">was here</property>
    <property name="seekable">1</property>
    <filter id="filter18" out="00:00:05.360">
      <property name="argument">Gracias por ver</property>
      <property name="geometry">5 450 1920 270 1</property>
      <property name="family">Sans</property>
      <property name="size">80</property>
      <property name="weight">750</property>
      <property name="style">normal</property>
      <property name="fgcolour">#ffffffff</property>
      <property name="bgcolour">#00000000</property>
      <property name="olcolour">#aa000000</property>
      <property name="pad">0</property>
      <property name="halign">center</property>
      <property name="valign">top</property>
      <property name="outline">3</property>
      <property name="mlt_service">dynamictext</property>
      <property name="shotcut:filter">dynamicText</property>
      <property name="shotcut:usePointSize">1</property>
      <property name="shotcut:pointSize">60</property>
    </filter>
  </producer>
  <tractor id="tractor8" in="00:00:00.000" out="00:00:01.440">
    <property name="shotcut:transition">lumaMix</property>
    <track producer="producer11" in="00:00:07.080" out="00:00:08.520"/>
    <track producer="producer12" in="00:00:00.000" out="00:00:01.440"/>
    <transition id="transition16" out="00:00:01.440">
      <property name="a_track">0</property>
      <property name="b_track">1</property>
      <property name="factory">loader</property>
      <property name="mlt_service">luma</property>
      <property name="alpha_over">1</property>
    </transition>
    <transition id="transition17" out="00:00:01.440">
      <property name="a_track">0</property>
      <property name="b_track">1</property>
      <property name="start">-1</property>
      <property name="accepts_blanks">1</property>
      <property name="mlt_service">mix</property>
    </transition>
  </tractor>
  <playlist id="playlist0">
    <property name="shotcut:video">1</property>
    <property name="shotcut:name">1</property>
    <property name="shotcut:lock">0</property>
    <entry producer="producer7" in="00:00:00.000" out="00:00:02.400"/>
    <entry producer="tractor4" in="00:00:00.000" out="00:00:01.240"/>
    <entry producer="producer8" in="00:00:01.280" out="00:00:12.240"/>
    <entry producer="tractor5" in="00:00:00.000" out="00:00:00.800"/>
    <entry producer="producer9" in="00:00:00.840" out="00:00:05.520"/>
    <entry producer="tractor6" in="00:00:00.000" out="00:00:01.120"/>
    <entry producer="producer10" in="00:00:01.160" out="00:00:05.400"/>
    <entry producer="tractor7" in="00:00:00.000" out="00:00:01.080"/>
    <entry producer="producer11" in="00:00:01.120" out="00:00:07.040"/>
    <entry producer="tractor8" in="00:00:00.000" out="00:00:01.440"/>
    <entry producer="producer12" in="00:00:01.480" out="00:00:05.360"/>
  </playlist>
  <tractor id="tractor9" title="Shotcut version 22.01.30" in="00:00:00.000" out="00:00:38.160">
    <property name="shotcut">1</property>
    <property name="shotcut:projectAudioChannels">2</property>
    <property name="shotcut:projectFolder">0</property>
    <property name="shotcut:trackHeight">22</property>
    <property name="shotcut:scaleFactor">1.01</property>
    <track producer="background"/>
    <track producer="playlist2"/>
    <track producer="playlist3"/>
    <track producer="playlist0"/>
    <transition id="transition18">
      <property name="a_track">0</property>
      <property name="b_track">1</property>
      <property name="mlt_service">mix</property>
      <property name="always_active">1</property>
      <property name="sum">1</property>
    </transition>
    <transition id="transition19">
      <property name="a_track">1</property>
      <property name="b_track">1</property>
      <property name="version">0.9</property>
      <property name="mlt_service">frei0r.cairoblend</property>
      <property name="threads">0</property>
      <property name="disable">1</property>
    </transition>
    <transition id="transition20">
      <property name="a_track">0</property>
      <property name="b_track">2</property>
      <property name="mlt_service">mix</property>
      <property name="always_active">1</property>
      <property name="sum">1</property>
    </transition>
    <transition id="transition21">
      <property name="a_track">1</property>
      <property name="b_track">2</property>
      <property name="version">0.9</property>
      <property name="mlt_service">frei0r.cairoblend</property>
      <property name="threads">0</property>
    </transition>
    <transition id="transition22">
      <property name="a_track">0</property>
      <property name="b_track">3</property>
      <property name="mlt_service">mix</property>
      <property name="always_active">1</property>
      <property name="sum">1</property>
    </transition>
    <transition id="transition23">
      <property name="a_track">1</property>
      <property name="b_track">3</property>
      <property name="version">0.9</property>
      <property name="mlt_service">frei0r.cairoblend</property>
      <property name="threads">0</property>
    </transition>
  </tractor>
</mlt>
